<svg width="500" height="500" viewBox="0 0 1000 1000" xmlns="http://www.w3.org/2000/svg" xmlns:xlink="http://www.w3.org/1999/xlink">
    <g id="next">
<!--        <path id="Path" fill="#000000" stroke="none" d="M 421.148651 7.053055 L 531.247559 7.053055 L 531.247559 27.374428 L 487.572479 27.374428 L 487.572479 134.28244 L 465.733337 134.28244 L 465.733337 27.374428 L 421.148651 27.374428 L 421.148651 7.053055 Z"/>-->
<!--        <path id="path2" fill="#000000" stroke="none" d="M 240.077698 7.053055 L 240.077698 27.374428 L 151.826096 27.374428 L 151.826096 60.065285 L 222.797943 60.065285 L 222.797943 80.386612 L 151.826096 80.386612 L 151.826096 113.961105 L 240.077698 113.961105 L 240.077698 134.28244 L 129.988388 134.28244 L 129.988388 27.374428 L 129.979248 27.374428 L 129.979248 7.053055 L 240.077698 7.053055 Z"/>-->
<!--        <path id="path3" fill="#000000" stroke="none" d="M 295.053375 7.106125 L 266.474609 7.106125 L 368.837677 134.335541 L 397.499847 134.335541 L 346.31189 70.764587 L 397.41803 7.203186 L 368.837677 7.24736 L 332.003296 52.994392 L 295.053375 7.106125 Z"/>-->
        <path id="path4" fill="#000000" stroke="none" d="M 324.37973 50.986755 L 310.067871 80.192169 L 266.392792 134.432602 L 295.053375 134.432602 L 324.37973 97.986755 Z"/>
<!--        <path id="path5" fill="#000000" fill-rule="evenodd" stroke="none" d="M 130.753632 134.28244 L 28.252766 7 L 0.955681 7 L 0.955681 134.22934 L 22.793381 134.22934 L 22.793381 34.195213 L 103.31987 134.28244 L 130.753632 134.28244 Z"/>-->
<!--        <path id="path6" fill="#000000" stroke="none" d="M 536.156677 133.505325 C 534.55719 133.505325 533.196777 132.951355 532.057739 131.843292 C 530.918701 130.735199 530.355591 129.393707 530.369995 127.804497 C 530.355591 126.258926 530.918701 124.932014 532.057739 123.823936 C 533.196777 122.715866 534.55719 122.161736 536.156677 122.161736 C 537.69519 122.161736 539.041199 122.715866 540.180237 123.823936 C 541.335327 124.932014 541.911255 126.258926 541.927307 127.804497 C 541.911255 128.854172 541.644958 129.816422 541.112366 130.676651 C 540.565247 131.55162 539.870605 132.236984 538.996277 132.732697 C 538.138 133.243027 537.191467 133.505325 536.156677 133.505325 Z"/>-->
<!--        <path id="path7" fill="#000000" stroke="none" d="M 573.429077 79.907257 L 583.10614 79.907257 L 583.10614 117.189735 C 583.091675 120.616165 582.350464 123.546883 580.901794 126.011055 C 579.437073 128.475082 577.409302 130.355789 574.805542 131.682693 C 572.216248 132.994843 569.182495 133.665741 565.734924 133.665741 C 562.58252 133.665741 559.757324 133.097031 557.241821 131.988953 C 554.726318 130.880859 552.729004 129.218674 551.264221 127.03154 C 549.783508 124.844421 549.05835 122.117943 549.05835 118.851944 L 558.751465 118.851944 C 558.76593 120.280869 559.091553 121.52002 559.712402 122.555267 C 560.333252 123.590515 561.191589 124.377739 562.287292 124.931854 C 563.395874 125.485985 564.669678 125.763046 566.103882 125.763046 C 567.658447 125.763046 568.98999 125.442177 570.069702 124.786026 C 571.149353 124.14447 571.97876 123.18222 572.556335 121.899117 C 573.117798 120.630768 573.414612 119.056 573.429077 117.189735 L 573.429077 79.907257 Z"/>-->
<!--        <path id="path8" fill="#000000" stroke="none" d="M 622.922913 94.487808 C 622.687073 92.227844 621.650696 90.463608 619.845886 89.209702 C 618.025024 87.941193 615.673096 87.31424 612.786987 87.31424 C 610.760742 87.31424 609.01532 87.620499 607.565063 88.218262 C 606.114746 88.830612 604.990173 89.647034 604.220093 90.682281 C 603.45166 91.717522 603.06665 92.898605 603.036194 94.22551 C 603.036194 95.333588 603.30249 96.295837 603.820618 97.097824 C 604.338806 97.914246 605.033508 98.599594 605.936707 99.153709 C 606.823853 99.722275 607.815308 100.188797 608.896606 100.567886 C 609.990723 100.946983 611.086426 101.267838 612.180603 101.530304 L 617.226074 102.769608 C 619.253845 103.236137 621.222351 103.863251 623.100952 104.665077 C 624.979553 105.452454 626.681702 106.458504 628.175293 107.668625 C 629.670532 108.878891 630.854492 110.336868 631.727173 112.04287 C 632.599915 113.748703 633.044312 115.746193 633.044312 118.049957 C 633.044312 121.155533 632.245422 123.882172 630.63147 126.244164 C 629.019165 128.591553 626.696167 130.428772 623.64801 131.755692 C 620.614319 133.067993 616.945313 133.738586 612.625 133.738586 C 608.452209 133.738586 604.812134 133.097183 601.749512 131.814087 C 598.672485 130.545563 596.274048 128.679138 594.543091 126.229561 C 592.812012 123.780144 591.879944 120.791031 591.746765 117.277161 L 601.335571 117.277161 C 601.46875 119.114235 602.060791 120.64537 603.06665 121.884674 C 604.086975 123.109383 605.418518 124.013412 607.046875 124.625763 C 608.689636 125.223511 610.523376 125.529778 612.551208 125.529778 C 614.667236 125.529778 616.531433 125.208916 618.143738 124.581955 C 619.741577 123.955017 620.999329 123.080353 621.902527 121.943069 C 622.820251 120.820236 623.278992 119.493484 623.293457 117.977119 C 623.278992 116.591972 622.863525 115.439941 622.064575 114.535927 C 621.251221 113.632072 620.126587 112.873886 618.690796 112.261528 C 617.242065 111.649178 615.554382 111.095047 613.630859 110.61393 L 607.505676 109.068359 C 603.081055 107.945679 599.574097 106.239838 597.013611 103.950684 C 594.44043 101.66153 593.166565 98.628792 593.166565 94.823257 C 593.166565 91.703087 594.024902 88.962006 595.757507 86.614449 C 597.472473 84.267059 599.825989 82.444427 602.800354 81.146729 C 605.789063 79.834579 609.162964 79.192863 612.920166 79.192863 C 616.738342 79.192863 620.081726 79.834579 622.967773 81.146729 C 625.852295 82.444427 628.117554 84.252464 629.758728 86.556053 C 631.40155 88.85981 632.259827 91.498856 632.304749 94.487808 L 622.922913 94.487808 Z"/>-->
    </g>
</svg>
